<svg xmlns="http://www.w3.org/2000/svg" width="891" height="284" viewBox="0 0 891 284"><defs><linearGradient id="logoGrad" x1="0%" y1="0%" x2="100%" y2="0%"><stop offset="0%" stop-color="#2563eb"/><stop offset="100%" stop-color="#06b6d4"/></linearGradient></defs>
<g fill="url(#logoGrad)">
<path d="M 848.50 286.00 L 395.97 286.00 C747.53,286.00 791.87,285.83 791.36,284.50 C791.05,283.67 790.11,283.00 789.28,283.00 C786.21,283.00 775.88,276.58 771.60,272.00 C766.08,266.10 762.39,258.92 760.11,249.66 C758.57,243.40 758.07,242.50 756.08,242.50 C754.21,242.50 753.28,243.77 750.77,249.75 C749.09,253.74 747.34,257.00 746.88,257.00 C746.42,257.00 743.64,258.53 740.72,260.40 C731.38,266.38 729.08,266.99 719.62,266.01 C703.57,264.36 695.92,257.95 690.95,242.00 C688.55,234.29 686.81,234.38 680.02,242.61 C672.24,252.02 657.46,264.00 653.62,264.00 C652.78,264.00 651.74,264.62 651.30,265.38 C650.10,267.46 638.90,265.61 631.38,262.09 C623.06,258.20 617.56,252.96 614.08,245.63 C604.70,225.86 608.62,202.83 625.75,177.08 C634.06,164.59 641.48,157.64 651.78,152.70 C667.05,145.37 677.61,146.76 695.57,158.46 C703.77,163.81 704.47,164.08 705.69,162.41 C706.41,161.42 707.00,160.16 707.00,159.59 C707.00,159.03 707.74,156.64 708.64,154.28 C710.58,149.19 711.90,148.98 720.23,152.40 C724.93,154.34 726.15,154.52 727.06,153.43 C729.24,150.80 723.93,139.92 716.78,132.36 C710.26,125.47 704.35,121.76 694.50,118.39 C687.48,115.99 684.96,115.65 674.00,115.62 C659.53,115.59 655.91,116.42 643.39,122.64 L 634.28 127.16 L 622.28 115.08 C607.57,100.27 606.75,100.05 596.71,108.25 C573.89,126.91 568.67,131.00 567.65,130.99 C567.02,130.98 563.35,128.43 559.50,125.33 C548.97,116.83 543.36,114.56 533.00,114.57 C527.69,114.58 522.90,115.18 520.23,116.18 C494.92,125.66 476.52,155.96 482.01,179.11 C484.72,190.51 491.91,201.30 501.36,208.15 C501.65,208.36 501.92,208.55 502.18,208.73 C503.43,209.62 504.23,210.18 504.20,210.71 C504.16,211.74 500.94,212.63 491.78,215.53 C485.20,217.60 481.95,218.13 478.58,217.67 C463.95,215.66 434.64,200.25 422.25,188.03 C417.78,183.63 410.00,171.27 410.00,168.58 C410.00,164.69 399.06,168.90 384.64,178.35 C369.40,188.33 356.86,200.28 335.15,225.50 C314.63,249.33 305.19,259.90 301.45,263.18 C293.88,269.83 284.21,271.08 274.50,266.66 C265.99,262.79 256.82,256.38 254.31,252.55 C243.64,236.28 248.52,207.01 269.99,158.53 C275.29,146.55 275.98,143.31 273.43,142.33 C271.36,141.54 266.42,146.37 253.30,162.00 C222.20,199.04 206.64,226.09 202.96,249.50 C202.36,253.35 202.15,258.43 202.50,260.79 C203.08,264.69 202.85,265.34 200.00,268.00 L 196.87 270.92 L 191.97 268.99 C189.28,267.93 183.04,264.56 178.11,261.51 C166.83,254.54 166.55,253.86 167.28,235.11 C168.10,214.07 173.86,194.35 189.60,158.79 C193.67,149.60 197.00,140.94 197.00,139.54 C197.00,135.11 193.58,136.49 187.47,143.40 C174.91,157.62 162.36,176.43 148.56,201.71 C138.74,219.70 134.17,230.23 126.93,251.50 C122.19,265.43 120.70,268.72 118.70,269.74 C117.27,270.47 116.01,272.20 115.67,273.90 C115.12,276.63 114.88,276.76 111.79,275.99 C99.15,272.83 92.48,268.34 90.29,261.50 C88.73,256.61 86.51,257.26 78.37,264.99 C68.87,274.02 60.86,279.21 53.07,281.40 C47.44,282.98 46.51,282.99 40.81,281.53 C32.87,279.49 24.10,275.14 16.27,269.32 C11.17,265.54 9.92,264.03 9.40,261.10 C9.05,259.12 8.14,255.04 7.38,252.04 C1.64,229.36 12.44,184.82 34.67,139.50 C37.91,132.90 41.28,125.63 42.17,123.33 C43.33,120.31 44.42,119.08 46.14,118.83 C47.79,118.60 49.09,117.22 50.47,114.25 C53.09,108.61 54.92,108.71 66.92,115.12 C81.60,122.95 82.30,123.57 81.52,127.88 C81.17,129.87 75.08,143.43 67.99,158.00 C49.83,195.37 48.19,200.95 45.31,235.19 C43.66,254.91 43.66,256.06 45.33,259.57 C47.04,263.15 47.21,263.24 51.57,262.75 C57.60,262.07 61.81,258.97 78.05,243.26 C95.48,226.41 93.80,230.11 103.59,187.04 C106.98,172.15 115.48,141.03 118.09,134.00 C120.85,126.57 124.49,120.51 129.38,115.21 C133.15,111.12 133.75,110.82 137.51,111.25 C140.08,111.54 144.97,113.76 150.86,117.31 C155.98,120.39 161.03,123.19 162.08,123.53 C165.28,124.54 164.36,128.86 158.59,140.03 C151.05,154.61 144.84,170.52 145.57,173.41 C146.08,175.44 146.45,175.60 148.42,174.67 C149.67,174.08 151.73,172.00 153.00,170.05 C158.61,161.42 172.62,143.59 181.88,133.32 C191.05,123.14 207.57,108.41 215.24,103.57 C218.27,101.66 218.32,101.66 221.90,103.76 C223.88,104.92 227.98,107.21 231.00,108.84 C240.96,114.22 245.00,117.69 245.00,120.87 C245.00,122.44 242.30,129.21 239.01,135.91 C228.34,157.57 223.87,168.64 224.60,171.55 C224.97,173.00 225.54,173.78 225.88,173.27 C226.22,172.77 227.23,172.09 228.13,171.76 C229.02,171.43 232.99,166.96 236.96,161.83 C254.90,138.60 270.68,122.01 285.58,110.70 C292.79,105.22 295.02,104.02 297.19,104.42 C298.67,104.70 304.65,107.50 310.47,110.65 C323.38,117.62 325.79,120.56 323.60,126.62 C321.18,133.32 313.60,150.83 305.26,169.00 C295.40,190.46 292.89,197.90 288.95,217.32 C284.95,237.04 284.22,245.11 286.28,246.82 C290.35,250.20 298.37,243.83 328.00,213.68 C359.62,181.52 372.36,171.90 394.34,163.59 L 405.50 159.37 L 405.62 146.43 C405.76,131.31 407.59,123.20 413.87,109.88 C419.54,97.86 421.44,89.91 424.98,63.50 C428.78,35.20 431.69,17.77 433.18,14.51 C434.69,11.18 437.52,10.46 440.80,12.57 C442.28,13.53 447.77,18.44 453.00,23.49 C458.23,28.54 468.51,38.19 475.86,44.93 C484.21,52.59 487.47,55.93 491.15,56.47 C493.84,56.87 496.76,55.77 502.07,53.77 C502.83,53.48 503.64,53.18 504.50,52.85 C513.32,49.57 513.81,49.50 529.43,49.50 L 545.37 49.50 L 551.93 41.88 C564.04,27.83 582.48,7.51 584.50,6.00 C589.33,2.38 589.95,4.05 597.16,40.29 C600.46,56.90 603.57,70.91 604.05,71.42 C604.54,71.93 615.19,72.39 627.72,72.44 C651.84,72.55 656.76,73.19 674.56,78.53 C684.71,81.58 701.88,90.25 709.76,96.32 C732.26,113.63 744.18,139.92 740.11,163.28 C739.48,166.92 736.72,177.17 733.98,186.07 C728.72,203.14 723.00,228.56 723.01,234.79 C723.01,239.69 724.67,245.48 726.50,247.00 C730.42,250.26 738.97,243.37 748.86,228.97 C756.67,217.59 757.57,215.08 759.01,200.34 C762.83,161.40 770.13,127.48 779.15,106.73 C780.77,103.00 781.82,99.52 781.49,98.98 C780.62,97.58 774.60,97.80 766.50,99.53 C754.22,102.17 745.88,102.50 741.95,100.52 C737.70,98.37 731.89,92.98 732.60,91.84 C732.88,91.38 735.21,91.00 737.76,91.00 C740.31,91.00 751.42,89.00 762.45,86.55 C773.48,84.11 783.60,81.97 784.95,81.80 C787.19,81.53 787.95,79.90 793.47,63.50 C805.51,27.79 805.89,27.00 811.03,27.00 C814.46,27.00 830.47,32.06 837.50,35.37 C840.25,36.66 843.54,38.05 844.81,38.45 C847.93,39.43 847.35,43.07 843.81,44.77 C841.05,46.08 840.04,48.23 834.24,65.03 C830.40,76.18 830.56,76.35 844.42,75.48 C850.69,75.09 860.25,75.09 865.66,75.47 L 875.50 76.18 L 875.50 80.82 C875.50,85.20 875.67,85.50 878.50,86.00 C880.15,86.30 881.03,86.84 880.46,87.20 C879.53,87.79 853.22,90.85 832.58,92.76 L 824.66 93.50 L 821.47 105.00 C819.72,111.32 813.97,129.32 808.68,145.00 C803.40,160.68 798.34,176.88 797.44,181.00 C795.28,190.90 794.47,222.82 795.86,243.00 C796.88,257.81 797.04,258.60 799.52,260.75 C800.94,261.99 803.21,263.00 804.55,263.00 C808.17,263.00 816.05,259.75 821.59,255.96 C828.38,251.33 843.11,236.38 852.11,225.00 C856.25,219.77 863.61,210.44 868.48,204.25 C873.35,198.06 877.68,193.00 878.10,193.00 C879.51,193.00 877.26,198.64 870.66,211.60 C862.80,227.06 857.41,235.70 846.08,251.00 C833.99,267.33 826.86,273.99 815.40,279.68 C810.23,282.25 806.00,284.72 806.00,285.17 C806.00,285.63 825.12,286.00 848.50,286.00 ZM 519.42 270.57 C504.15,275.03 498.80,275.66 489.50,274.06 C478.98,272.26 470.62,263.59 469.45,253.28 L 468.76 247.17 L 473.57 242.03 C479.74,235.43 487.79,231.58 509.00,225.09 C523.16,220.76 538.41,215.59 552.00,210.50 C553.92,209.78 558.93,207.61 563.12,205.68 L 570.73 202.17 L 574.36 211.34 C576.36,216.38 579.78,223.17 581.95,226.43 C585.86,232.32 585.88,232.39 584.20,235.31 C581.99,239.13 573.81,246.22 566.38,250.73 C555.59,257.28 534.74,266.09 519.42,270.57 ZM 646.92 243.41 C650.31,247.03 652.89,246.66 659.64,241.63 C665.93,236.94 685.02,217.83 686.78,214.45 C687.37,213.33 689.20,207.01 690.86,200.41 C692.51,193.81 695.02,185.34 696.43,181.59 C699.73,172.82 699.68,171.52 695.97,169.99 C691.73,168.23 683.95,169.36 678.58,172.51 C667.90,178.77 653.90,197.65 647.91,213.88 C645.27,221.06 644.72,224.03 644.62,231.66 C644.51,240.06 644.70,241.04 646.92,243.41 ZM 80.14 89.36 C76.11,91.48 71.78,93.00 69.81,93.00 C65.26,93.00 56.00,86.64 56.00,83.51 C56.00,82.30 55.10,80.50 54.00,79.50 C50.60,76.43 51.36,68.72 55.62,63.00 C56.23,62.17 57.05,60.18 57.43,58.56 C58.26,55.08 65.73,42.00 66.89,42.00 C67.33,42.00 68.51,42.90 69.50,44.00 C73.21,48.10 82.34,48.80 87.71,45.40 C90.77,43.47 90.84,43.52 91.19,47.74 C91.46,50.98 92.07,51.79 95.83,53.86 C99.59,55.92 100.08,56.56 99.53,58.74 C99.11,60.40 99.48,61.87 100.62,63.13 C102.24,64.92 102.21,65.29 99.94,70.13 C96.72,77.01 88.55,84.94 80.14,89.36 Z"/>

</g>
</svg>